# xmcd
#
# Track frame offsets:
#	150
#	20928
#	48322
#	72934
#	98135
#	124339
#	146430
#	169271
#	196512
#	220974
#	253675
#	278535
#	307808
#
# Disc length: 4508 seconds
#
# Revision: 0
# Processed by: cddbd v1.5.1PL0 Copyright (c) Steve Scherf et al.
# Submitted via: dBpowerAMP V4.0
#
DISCID=b9119a0d
DTITLE=Reverend Raven - Live at Blues on Grand
DYEAR=2004
DGENRE=Blues
TTITLE0=I'm Your Honeyboy
TTITLE1=Loving You
TTITLE2=Got Love If You Want It
TTITLE3=I've Got To Be With You Tonight
TTITLE4=Bee Hive Baby
TTITLE5=Bye Bye Baby
TTITLE6=In The Open
TTITLE7=Louise
TTITLE8=Who's Been Talkin'
TTITLE9=Sweet Man
TTITLE10=Please Let Me Explain
TTITLE11=The Back Scratcher
TTITLE12=I Can't You Off My Mind
EXTD=
EXTT0=
EXTT1=
EXTT2=
EXTT3=
EXTT4=
EXTT5=
EXTT6=
EXTT7=
EXTT8=
EXTT9=
EXTT10=
EXTT11=
EXTT12=
PLAYORDER=
